<svg width="236" height="52" viewBox="0 0 236 52" fill="none" xmlns="http://www.w3.org/2000/svg">
<g style="mix-blend-mode:multiply">
<path d="M21.7303 9.63335L5.42573 27.8193C4.95447 28.3449 4.72179 29.0422 4.78294 29.7455L5.24356 35.0426C5.32797 36.0133 5.95735 36.8514 6.86604 37.2032L25.1607 44.285C26.2003 44.6874 27.3807 44.3691 28.0771 43.4986L44.4014 23.0934C44.7637 22.6405 44.961 22.0778 44.961 21.4978L44.961 15.7387C44.961 14.5527 44.1445 13.5227 42.9898 13.252L24.2148 8.85162C23.306 8.63862 22.3534 8.93835 21.7303 9.63335Z" fill="url(#paint0_linear_10_593)"/>
</g>
<path d="M73.532 25.0362H77.4456V32.5461C76.4408 33.3042 75.2773 33.8859 73.9551 34.2914C72.633 34.6969 71.302 34.8996 69.9622 34.8996C68.0406 34.8996 66.313 34.4941 64.7793 33.6832C63.2456 32.8546 62.038 31.7176 61.1565 30.272C60.2927 28.8088 59.8608 27.1605 59.8608 25.3271C59.8608 23.4937 60.2927 21.8542 61.1565 20.4086C62.038 18.9454 63.2544 17.8084 64.8057 16.9974C66.3571 16.1689 68.1023 15.7546 70.0415 15.7546C71.6634 15.7546 73.1354 16.0279 74.4576 16.5744C75.7797 17.1208 76.8903 17.9141 77.7894 18.9543L75.0393 21.4928C73.7171 20.1001 72.1217 19.4038 70.2531 19.4038C69.0719 19.4038 68.023 19.6506 67.1063 20.1442C66.1896 20.6378 65.4756 21.3342 64.9644 22.2332C64.4531 23.1323 64.1975 24.1636 64.1975 25.3271C64.1975 26.473 64.4531 27.4955 64.9644 28.3945C65.4756 29.2936 66.1808 29.9988 67.0799 30.51C67.9966 31.0036 69.0367 31.2504 70.2002 31.2504C71.4342 31.2504 72.5448 30.986 73.532 30.4571V25.0362ZM85.0741 22.2332C85.5678 21.5457 86.2288 21.0256 87.0574 20.6731C87.9036 20.3205 88.8732 20.1442 89.9662 20.1442V23.952C89.5078 23.9168 89.1993 23.8992 89.0406 23.8992C87.8595 23.8992 86.934 24.2341 86.2641 24.904C85.5942 25.5563 85.2592 26.5435 85.2592 27.8657V34.5823H81.1341V20.3558H85.0741V22.2332ZM106.226 27.5219C106.226 27.5748 106.199 27.945 106.146 28.6325H95.3837C95.5777 29.514 96.036 30.2103 96.7588 30.7215C97.4816 31.2328 98.3807 31.4884 99.456 31.4884C100.196 31.4884 100.849 31.3826 101.413 31.1711C101.995 30.9419 102.532 30.5893 103.026 30.1133L105.221 32.4933C103.881 34.027 101.924 34.7938 99.3502 34.7938C97.746 34.7938 96.3269 34.4853 95.0929 33.8683C93.8588 33.2337 92.9069 32.361 92.237 31.2504C91.5671 30.1398 91.2321 28.8793 91.2321 27.469C91.2321 26.0763 91.5583 24.8247 92.2105 23.7141C92.8804 22.5858 93.7883 21.7132 94.9342 21.0962C96.0977 20.4615 97.3934 20.1442 98.8214 20.1442C100.214 20.1442 101.475 20.4439 102.603 21.0433C103.731 21.6427 104.612 22.5065 105.247 23.6347C105.899 24.7453 106.226 26.0411 106.226 27.5219ZM98.8478 23.2645C97.9135 23.2645 97.129 23.529 96.4944 24.0578C95.8597 24.5867 95.4719 25.3095 95.3309 26.2262H102.338C102.197 25.3271 101.809 24.6131 101.175 24.0843C100.54 23.5378 99.7645 23.2645 98.8478 23.2645ZM122.908 27.5219C122.908 27.5748 122.881 27.945 122.828 28.6325H112.066C112.26 29.514 112.718 30.2103 113.441 30.7215C114.164 31.2328 115.063 31.4884 116.138 31.4884C116.878 31.4884 117.531 31.3826 118.095 31.1711C118.677 30.9419 119.214 30.5893 119.708 30.1133L121.903 32.4933C120.563 34.027 118.606 34.7938 116.032 34.7938C114.428 34.7938 113.009 34.4853 111.775 33.8683C110.541 33.2337 109.589 32.361 108.919 31.2504C108.249 30.1398 107.914 28.8793 107.914 27.469C107.914 26.0763 108.24 24.8247 108.893 23.7141C109.562 22.5858 110.47 21.7132 111.616 21.0962C112.78 20.4615 114.075 20.1442 115.503 20.1442C116.896 20.1442 118.157 20.4439 119.285 21.0433C120.413 21.6427 121.295 22.5065 121.929 23.6347C122.581 24.7453 122.908 26.0411 122.908 27.5219ZM115.53 23.2645C114.596 23.2645 113.811 23.529 113.176 24.0578C112.542 24.5867 112.154 25.3095 112.013 26.2262H119.02C118.879 25.3271 118.492 24.6131 117.857 24.0843C117.222 23.5378 116.447 23.2645 115.53 23.2645ZM134.301 20.1442C136.064 20.1442 137.483 20.6731 138.558 21.7308C139.651 22.7885 140.198 24.3575 140.198 26.4377V34.5823H136.073V27.0724C136.073 25.9441 135.826 25.1067 135.332 24.5602C134.839 23.9961 134.125 23.7141 133.19 23.7141C132.15 23.7141 131.322 24.0402 130.705 24.6925C130.088 25.3271 129.779 26.2791 129.779 27.5483V34.5823H125.654V20.3558H129.594V22.0217C130.14 21.4223 130.819 20.9639 131.63 20.6466C132.441 20.3117 133.331 20.1442 134.301 20.1442ZM165.309 24.9569C166.366 25.2918 167.195 25.856 167.794 26.6493C168.394 27.4249 168.693 28.3857 168.693 29.5316C168.693 31.1535 168.059 32.4051 166.789 33.2866C165.538 34.1504 163.704 34.5823 161.289 34.5823H151.717V16.0719H160.76C163.017 16.0719 164.745 16.5038 165.943 17.3677C167.16 18.2315 167.768 19.4038 167.768 20.8846C167.768 21.7837 167.548 22.5858 167.107 23.291C166.684 23.9961 166.084 24.5514 165.309 24.9569ZM155.974 19.298V23.6612H160.232C161.289 23.6612 162.091 23.4761 162.638 23.1059C163.184 22.7357 163.458 22.1892 163.458 21.4664C163.458 20.7436 163.184 20.2059 162.638 19.8533C162.091 19.4831 161.289 19.298 160.232 19.298H155.974ZM160.972 31.3562C162.1 31.3562 162.946 31.1711 163.51 30.8009C164.092 30.4307 164.383 29.8577 164.383 29.0821C164.383 27.5483 163.246 26.7815 160.972 26.7815H155.974V31.3562H160.972ZM178.415 34.7938C176.917 34.7938 175.568 34.4853 174.369 33.8683C173.188 33.2337 172.263 32.361 171.593 31.2504C170.923 30.1398 170.588 28.8793 170.588 27.469C170.588 26.0587 170.923 24.7982 171.593 23.6876C172.263 22.577 173.188 21.7132 174.369 21.0962C175.568 20.4615 176.917 20.1442 178.415 20.1442C179.914 20.1442 181.254 20.4615 182.435 21.0962C183.616 21.7132 184.541 22.577 185.211 23.6876C185.881 24.7982 186.216 26.0587 186.216 27.469C186.216 28.8793 185.881 30.1398 185.211 31.2504C184.541 32.361 183.616 33.2337 182.435 33.8683C181.254 34.4853 179.914 34.7938 178.415 34.7938ZM178.415 31.4091C179.473 31.4091 180.337 31.0565 181.007 30.3513C181.694 29.6286 182.038 28.6678 182.038 27.469C182.038 26.2702 181.694 25.3183 181.007 24.6131C180.337 23.8903 179.473 23.529 178.415 23.529C177.358 23.529 176.485 23.8903 175.797 24.6131C175.11 25.3183 174.766 26.2702 174.766 27.469C174.766 28.6678 175.11 29.6286 175.797 30.3513C176.485 31.0565 177.358 31.4091 178.415 31.4091ZM195.743 34.7938C194.244 34.7938 192.896 34.4853 191.697 33.8683C190.516 33.2337 189.59 32.361 188.92 31.2504C188.251 30.1398 187.916 28.8793 187.916 27.469C187.916 26.0587 188.251 24.7982 188.92 23.6876C189.59 22.577 190.516 21.7132 191.697 21.0962C192.896 20.4615 194.244 20.1442 195.743 20.1442C197.241 20.1442 198.581 20.4615 199.762 21.0962C200.943 21.7132 201.869 22.577 202.539 23.6876C203.209 24.7982 203.544 26.0587 203.544 27.469C203.544 28.8793 203.209 30.1398 202.539 31.2504C201.869 32.361 200.943 33.2337 199.762 33.8683C198.581 34.4853 197.241 34.7938 195.743 34.7938ZM195.743 31.4091C196.801 31.4091 197.664 31.0565 198.334 30.3513C199.022 29.6286 199.366 28.6678 199.366 27.469C199.366 26.2702 199.022 25.3183 198.334 24.6131C197.664 23.8903 196.801 23.529 195.743 23.529C194.685 23.529 193.813 23.8903 193.125 24.6131C192.437 25.3183 192.094 26.2702 192.094 27.469C192.094 28.6678 192.437 29.6286 193.125 30.3513C193.813 31.0565 194.685 31.4091 195.743 31.4091ZM212.409 29.0027L210.426 30.9595V34.5823H206.301V14.9613H210.426V26.0675L216.455 20.3558H221.374L215.45 26.3848L221.903 34.5823H216.905L212.409 29.0027ZM228.079 34.7938C226.898 34.7938 225.743 34.6528 224.615 34.3707C223.487 34.071 222.588 33.7008 221.918 33.2601L223.293 30.2985C223.928 30.7039 224.694 31.0389 225.593 31.3033C226.493 31.5501 227.374 31.6735 228.238 31.6735C229.983 31.6735 230.856 31.2416 230.856 30.3778C230.856 29.9723 230.618 29.6814 230.142 29.5052C229.666 29.3289 228.934 29.179 227.947 29.0556C226.783 28.8793 225.823 28.6766 225.065 28.4474C224.307 28.2182 223.645 27.8128 223.081 27.231C222.535 26.6493 222.262 25.8207 222.262 24.7453C222.262 23.8463 222.517 23.053 223.028 22.3654C223.557 21.6603 224.315 21.1138 225.303 20.726C226.307 20.3381 227.489 20.1442 228.846 20.1442C229.851 20.1442 230.847 20.2588 231.834 20.488C232.839 20.6995 233.668 20.9992 234.32 21.387L232.945 24.3223C231.693 23.6171 230.327 23.2645 228.846 23.2645C227.965 23.2645 227.303 23.3879 226.863 23.6347C226.422 23.8815 226.202 24.1989 226.202 24.5867C226.202 25.0274 226.44 25.3359 226.916 25.5122C227.392 25.6885 228.15 25.856 229.19 26.0146C230.353 26.2085 231.305 26.4201 232.046 26.6493C232.786 26.8608 233.43 27.2575 233.976 27.8392C234.523 28.421 234.796 29.2319 234.796 30.272C234.796 31.1535 234.531 31.9379 234.002 32.6255C233.474 33.313 232.698 33.8507 231.675 34.2385C230.671 34.6087 229.472 34.7938 228.079 34.7938Z" fill="#30CF8C"/>
<defs>
<linearGradient id="paint0_linear_10_593" x1="26.4599" y1="23.4594" x2="6.90587" y2="43.0135" gradientUnits="userSpaceOnUse">
<stop stop-color="#30CF8C"/>
<stop offset="1" stop-color="#25BBC5" stop-opacity="0.19"/>
</linearGradient>
</defs>
</svg>
