<svg width="23" height="22" viewBox="0 0 23 22" fill="none" xmlns="http://www.w3.org/2000/svg">
<g clip-path="url(#clip0_2_1073)">
<path d="M11.28 16.1193C11.5697 15.9422 11.9343 15.9422 12.2241 16.1193L15.5081 18.1267C16.1923 18.5449 17.0422 17.9327 16.8622 17.1513L15.9826 13.3327C15.9078 13.0081 16.0173 12.6688 16.2677 12.4491L19.207 9.8703C19.8064 9.34437 19.4821 8.35641 18.6876 8.28814L14.8413 7.95766C14.5057 7.92882 14.2139 7.71601 14.0839 7.40529L12.587 3.8284C12.2769 3.08747 11.2271 3.08747 10.9171 3.8284L9.4202 7.40529C9.29016 7.71601 8.99834 7.92882 8.66274 7.95766L4.81649 8.28814C4.02196 8.35641 3.6976 9.34436 4.29705 9.8703L7.23637 12.4491C7.4867 12.6688 7.59621 13.0081 7.52145 13.3327L6.64185 17.1513C6.46186 17.9327 7.31175 18.5449 7.99592 18.1267L11.28 16.1193Z" fill="#CED7E4"/>
</g>
<defs>
<clipPath id="clip0_2_1073">
<rect width="21.7226" height="22" fill="white" transform="translate(0.890625)"/>
</clipPath>
</defs>
</svg>
