<svg width="22" height="22" viewBox="0 0 22 22" fill="none" xmlns="http://www.w3.org/2000/svg">
<g clip-path="url(#clip0_2_1018)">
<path d="M10.3893 16.1194C10.6791 15.9422 11.0437 15.9422 11.3335 16.1194L14.6175 18.1268C15.3017 18.545 16.1516 17.9328 15.9716 17.1514L15.092 13.3327C15.0172 13.0082 15.1267 12.6688 15.3771 12.4492L18.3164 9.87036C18.9158 9.34443 18.5915 8.35647 17.7969 8.2882L13.9507 7.95772C13.6151 7.92889 13.3233 7.71607 13.1932 7.40535L11.6963 3.82846C11.3863 3.08753 10.3365 3.08753 10.0265 3.82846L8.52957 7.40535C8.39954 7.71607 8.10771 7.92889 7.77211 7.95772L3.92587 8.2882C3.13134 8.35647 2.80698 9.34443 3.40643 9.87036L6.34574 12.4492C6.59608 12.6688 6.70558 13.0082 6.63083 13.3327L5.75123 17.1514C5.57123 17.9328 6.42113 18.545 7.1053 18.1268L10.3893 16.1194Z" fill="#FCC419"/>
</g>
<defs>
<clipPath id="clip0_2_1018">
<rect width="21.7226" height="22" fill="white"/>
</clipPath>
</defs>
</svg>
